<?xml version="1.0" encoding="UTF-8" standalone="no"?>
<!-- Created with Inkscape (http://www.inkscape.org/) -->

<svg
   xmlns:dc="http://purl.org/dc/elements/1.1/"
   xmlns:cc="http://creativecommons.org/ns#"
   xmlns:rdf="http://www.w3.org/1999/02/22-rdf-syntax-ns#"
   xmlns:svg="http://www.w3.org/2000/svg"
   xmlns="http://www.w3.org/2000/svg"
   xmlns:sodipodi="http://sodipodi.sourceforge.net/DTD/sodipodi-0.dtd"
   xmlns:inkscape="http://www.inkscape.org/namespaces/inkscape"
   width="2157.874"
   height="1077.1653"
   id="svg2"
   version="1.1"
   inkscape:version="0.48.4 r9939"
   sodipodi:docname="scheine.svg">
  <defs
     id="defs4">
    <inkscape:perspective
       sodipodi:type="inkscape:persp3d"
       inkscape:vp_x="0 : 526.18109 : 1"
       inkscape:vp_y="0 : 1000 : 0"
       inkscape:vp_z="744.09448 : 526.18109 : 1"
       inkscape:persp3d-origin="372.04724 : 350.78739 : 1"
       id="perspective10" />
  </defs>
  <sodipodi:namedview
     id="base"
     pagecolor="#ffffff"
     bordercolor="#666666"
     borderopacity="1.0"
     inkscape:pageopacity="0.0"
     inkscape:pageshadow="2"
     inkscape:zoom="0.46435547"
     inkscape:cx="-131.97242"
     inkscape:cy="964.63621"
     inkscape:document-units="mm"
     inkscape:current-layer="layer1"
     showgrid="false"
     units="mm"
     inkscape:window-width="1920"
     inkscape:window-height="1148"
     inkscape:window-x="-8"
     inkscape:window-y="-8"
     inkscape:window-maximized="1"
     inkscape:snap-global="true">
    <inkscape:grid
       type="xygrid"
       id="grid2814"
       empspacing="5"
       visible="true"
       enabled="true"
       snapvisiblegridlinesonly="true"
       units="mm"
       spacingx="1mm"
       spacingy="1mm"
       originx="1mm"
       originy="303mm" />
  </sodipodi:namedview>
  <metadata
     id="metadata7">
    <rdf:RDF>
      <cc:Work
         rdf:about="">
        <dc:format>image/svg+xml</dc:format>
        <dc:type
           rdf:resource="http://purl.org/dc/dcmitype/StillImage" />
        <dc:title />
      </cc:Work>
    </rdf:RDF>
  </metadata>
  <g
     inkscape:label="Ebene 1"
     inkscape:groupmode="layer"
     id="layer1"
     transform="translate(0,24.803143)">
    <rect
       style="opacity:1;color:#000000;fill:#000000;fill-opacity:1;fill-rule:nonzero;stroke:#ff0000;stroke-width:0.35433071999999999;stroke-linecap:butt;stroke-linejoin:miter;stroke-miterlimit:4;stroke-opacity:1;stroke-dasharray:none;stroke-dashoffset:0;marker:none;visibility:visible;display:inline;overflow:visible;enable-background:accumulate"
       id="rect2984"
       width="123.66142"
       height="247.67717"
       x="0.14951777"
       y="-23.365177" />
    <path
       inkscape:connector-curvature="0"
       style="opacity:1;color:#000000;fill:#000000;fill-opacity:1;fill-rule:nonzero;stroke:#ff0000;stroke-width:0.35433071999999999;stroke-linecap:butt;stroke-linejoin:miter;stroke-miterlimit:4;stroke-opacity:1;stroke-dasharray:none;stroke-dashoffset:0;marker:none;visibility:visible;display:inline;overflow:visible;enable-background:accumulate"
       d="m 127.34735,47.511366 0,180.343704 -91.749999,0 0,67.3126 123.656249,0 0,-247.656304 -31.90625,0 z"
       id="rect2984-4" />
    <path
       inkscape:connector-curvature="0"
       style="opacity:1;color:#000000;fill:#000000;fill-opacity:1;fill-rule:nonzero;stroke:#ff0000;stroke-width:0.35433071999999999;stroke-linecap:butt;stroke-linejoin:miter;stroke-miterlimit:4;stroke-opacity:1;stroke-dasharray:none;stroke-dashoffset:0;marker:none;visibility:visible;display:inline;overflow:visible;enable-background:accumulate"
       d="m 127.34735,12.073866 0,31.875 35.4375,0 0,215.781204 31.90625,0 0,-247.656204 -67.34375,0 z"
       id="rect2984-8" />
    <path
       inkscape:connector-curvature="0"
       id="path4532"
       style="font-size:48px;font-style:normal;font-variant:normal;font-weight:normal;font-stretch:normal;text-align:start;line-height:125%;letter-spacing:0px;word-spacing:0px;writing-mode:lr-tb;text-anchor:start;fill:#ffffff;fill-opacity:1;stroke:none;font-family:TeX Gyre Heros;-inkscape-font-specification:TeX Gyre Heros;opacity:1"
       d="m 123.17003,247.74142 c -6.72,0 -11.136,4.464 -11.136,10.992 0,2.4 0.624,4.32 2.064,6.288 l -8.784,-1.344 0,-14.16 -4.176,0 0,17.568 17.808,2.544 0,-3.888 c -2.352,-1.968 -3.168,-3.60001 -3.168,-6.24 0,-4.56 2.928,-7.44 7.968,-7.44 4.89599,0 7.68,2.832 7.68,7.44 0,3.69599 -1.87201,5.952 -5.712,6.96 l 0,4.224 c 6.76799,-1.392 9.456,-5.23201 9.456,-11.28 0,-6.864 -4.80001,-11.664 -12,-11.664" />
    <g
       transform="matrix(0,-1,1,0,0,0)"
       inkscape:transform-center-y="62.932503"
       style="font-size:12px;font-style:normal;font-variant:normal;font-weight:bold;font-stretch:normal;text-align:start;line-height:125%;letter-spacing:0px;word-spacing:0px;writing-mode:lr-tb;text-anchor:start;fill:#ffffff;fill-opacity:1;stroke:none;font-family:Sans;-inkscape-font-specification:Sans;opacity:1"
       id="text3137-1">
      <path
         d="m -184.85187,99.007027 0,-34.032 -2.784,0 c -1.488,5.231994 -2.44801,5.952 -8.976,6.768 l 0,3.024 7.536,0 0,24.24 4.224,0"
         style="font-size:48px;font-weight:normal;fill:#ffffff;font-family:TeX Gyre Heros;-inkscape-font-specification:TeX Gyre Heros"
         id="path4527" />
      <path
         d="m -150.45312,82.639027 c 0,-11.807989 -3.74401,-17.664 -11.136,-17.664 -7.344,0 -11.136,5.952011 -11.136,17.376 0,11.471988 3.84,17.376 11.136,17.376 7.19999,0 11.136,-5.904012 11.136,-17.088 m -4.32,-0.384 c 0,9.64799 -2.20801,13.968 -6.912,13.968 -4.464,0 -6.72,-4.51201 -6.72,-13.824 0,-9.311991 2.256,-13.68 6.816,-13.68 4.55999,0 6.816,4.416009 6.816,13.536"
         style="font-size:48px;font-weight:normal;fill:#ffffff;font-family:TeX Gyre Heros;-inkscape-font-specification:TeX Gyre Heros"
         id="path4529" />
    </g>
    <g
       id="g12"
       transform="matrix(0,0.61251304,0.61251304,0,254.07812,12.073866)"
       style="fill:#000000;fill-opacity:1;stroke:none;opacity:1">
      <path
         inkscape:connector-curvature="0"
         d="m 0,0 0,0 72.215,-68.032 31.181,0 -58.673,55.275 113.384,0 0,25.513 -113.384,0 58.673,55.275 -31.181,0 L 0,0 z"
         style="fill:#000000;fill-opacity:1;stroke:none"
         id="path14" />
    </g>
  </g>
</svg>
